<?xml version="1.0" encoding="UTF-8"?>
<!DOCTYPE svg PUBLIC "-//W3C//DTD SVG 1.1//EN" "http://www.w3.org/Graphics/SVG/1.1/DTD/svg11.dtd">
<!-- Creator: CorelDRAW -->
<svg xmlns="http://www.w3.org/2000/svg" xml:space="preserve" width="6.82666in" height="6.82666in" style="shape-rendering:geometricPrecision; text-rendering:geometricPrecision; image-rendering:optimizeQuality; fill-rule:evenodd; clip-rule:evenodd"
viewBox="0 0 6.82666 6.82666"
 xmlns:xlink="http://www.w3.org/1999/xlink">
 <defs>
  <style type="text/css">
   <![CDATA[
    .fil2 {fill:none}
    .fil0 {fill:#00838F}
    .fil1 {fill:#FFFFFE;fill-rule:nonzero}
   ]]>
  </style>
 </defs>
 <g id="Layer_x0020_1">
  <metadata id="CorelCorpID_0Corel-Layer"/>
  <rect class="fil0" width="6.82666" height="6.82666"/>
  <path class="fil1" d="M4.53455 4.07078c0.390622,0 0.745484,0.132965 1.00344,0.347925 0.263362,0.219469 0.42626,0.523902 0.42626,0.861272 0,0.666433 -0.546728,0.662874 -1.25516,0.658268 -0.0254724,-0.000165354 -0.0523543,-0.000334646 -0.174543,-0.000334646 -0.122177,0 -0.149071,0.000169291 -0.174539,0.000334646 -0.708429,0.0046063 -1.25517,0.00816535 -1.25517,-0.658268 0,-0.337362 0.162898,-0.641799 0.42626,-0.861268 0.257961,-0.214965 0.612823,-0.347929 1.00344,-0.347929zm0.867606 0.511256c-0.220882,-0.184067 -0.527539,-0.297917 -0.867606,-0.297917 -0.340071,0 -0.646728,0.113854 -0.86761,0.297921 -0.215476,0.179563 -0.348756,0.426402 -0.348756,0.697937 0,0.452535 0.453445,0.449587 1.04099,0.445764 0.0890079,-0.00057874 0.171823,-0.00116929 0.175374,-0.00116929 0.00356299,0 0.0863661,0.000590551 0.175378,0.00116929 0.587543,0.00382283 1.04098,0.00677165 1.04098,-0.445764 0,-0.271539 -0.133283,-0.518378 -0.348756,-0.697941z"/>
  <path class="fil1" d="M4.53454 2.34666c0.215591,0 0.412209,0.0546063 0.552929,0.168343 0.133622,0.107996 0.215256,0.264685 0.215256,0.472988 0,0.217378 -0.0940945,0.492646 -0.243366,0.699161 -0.135449,0.187398 -0.318307,0.322717 -0.524819,0.322717 -0.206512,0 -0.389366,-0.135315 -0.524819,-0.322713 -0.149268,-0.20652 -0.243362,-0.481783 -0.243362,-0.699165 0,-0.208303 0.0816339,-0.364992 0.215256,-0.472988 0.140717,-0.113736 0.337335,-0.168343 0.552925,-0.168343zm0.419598 0.334177c-0.101012,-0.0816417 -0.250642,-0.120839 -0.419598,-0.120839 -0.168953,0 -0.318587,0.0391969 -0.419594,0.120839 -0.0839567,0.0678583 -0.135248,0.169331 -0.135248,0.307154 0,0.176795 0.0783071,0.403134 0.202528,0.575 0.0980197,0.13561 0.222335,0.233539 0.352315,0.233539 0.129976,0 0.254291,-0.0979291 0.352315,-0.233543 0.124224,-0.171866 0.202531,-0.398201 0.202531,-0.574996 0,-0.137823 -0.0512913,-0.239295 -0.135248,-0.307154z"/>
  <path class="fil1" d="M3.08114 1.06667l-1.28578 0c-0.20028,0 -0.382433,0.0820118 -0.514555,0.214134 -0.132122,0.132122 -0.214134,0.31428 -0.214134,0.514559 0,0.20028 0.0820118,0.382437 0.214134,0.514559 0.132122,0.132122 0.314276,0.214134 0.514555,0.214134l0.983197 0c0.0297913,0 0.0567205,0.0122165 0.0760748,0.0319094l0.317232 0.317232 -0.0604606 -0.225638 -0.000133858 3.54331e-005c-0.0152441,-0.0569016 0.0185236,-0.115394 0.0754252,-0.130638 0.00625591,-0.00167717 0.0125315,-0.00275984 0.0187638,-0.00328346 0.171118,-0.0296496 0.322331,-0.119563 0.430768,-0.246909 0.108142,-0.126996 0.173598,-0.291717 0.173598,-0.471402 0,-0.20028 -0.0820118,-0.382437 -0.214134,-0.514559 -0.132122,-0.132122 -0.314276,-0.214134 -0.514555,-0.214134zm-1.28578 -0.213339l1.28578 0c0.259165,0 0.494701,0.105949 0.66539,0.276638 0.170689,0.170689 0.276638,0.406228 0.276638,0.665394 0,0.231287 -0.0849409,0.44411 -0.225268,0.608906 -0.117551,0.138047 -0.274098,0.242059 -0.452173,0.294602l0.133409 0.497878c0.0120472,0.0369606 0.00338976,0.0792008 -0.0259803,0.108571 -0.0416535,0.0416535 -0.109197,0.0416535 -0.15085,0l7.87402e-006 -7.87402e-006 -0.567917 -0.567917 -0.939031 0c-0.259165,0 -0.494701,-0.105949 -0.66539,-0.276638 -0.170689,-0.170689 -0.276638,-0.406228 -0.276638,-0.665394 0,-0.259165 0.105949,-0.494705 0.276638,-0.665394 0.170689,-0.170689 0.406224,-0.276638 0.66539,-0.276638z"/>
  <rect class="fil2" width="6.82666" height="6.82666"/>
 </g>
</svg>
