<svg xmlns="http://www.w3.org/2000/svg" viewBox="0 0 64 64"><defs><style>.cls-1{fill:#d1e7ff;}.cls-2{fill:#8bc4ff;}.cls-3{fill:#2e58ff;}</style></defs><title>Headphone Verification</title><g id="Headphone_Verification" data-name="Headphone Verification"><circle class="cls-1" cx="32" cy="36" r="18"/><path class="cls-2" d="M50,48H48V24h2a12,12,0,0,1,0,24Z"/><path class="cls-2" d="M14,48h2V24H14a12,12,0,0,0,0,24Z"/><path class="cls-3" d="M55,22.92a23,23,0,0,0-46,0A14,14,0,0,0,14,50c1.92,0,2.57.14,3.28-.47a20,20,0,0,0,29.44,0c.76.65,1.54.47,3.28.47.34,0,.67,0,1,0v6a4,4,0,0,1-4,4H33a2,2,0,0,0,0,4H47a8,8,0,0,0,8-8V49.07C67,44.5,67,27.52,55,22.92ZM32,4A19,19,0,0,1,51,22c-.32,0-.65,0-1,0-1.92,0-2.57-.14-3.28.47a20,20,0,0,0-29.44,0C16.52,21.82,15.74,22,14,22c-.33,0-.66,0-1,0A19,19,0,0,1,32,4ZM14,46a10,10,0,0,1,0-20Zm4-2.27V28.27a16,16,0,0,1,28,0V43.73A16,16,0,0,1,18,43.73ZM50,46V26a10,10,0,0,1,0,20Z"/><path class="cls-3" d="M37.51,29.66l-7.59,8.43-3.51-3.5a2,2,0,0,0-2.82,2.82C29,42.84,28.91,43,30,43a2,2,0,0,0,1.49-.66l9-10a2,2,0,0,0-3-2.68Z"/></g></svg>